<svg width="11242" height="10874" viewBox="0 0 11242 10874" fill="none" xmlns="http://www.w3.org/2000/svg">
<path d="M2213.19 2419.11C2820.64 1976.9 3420.87 2422.81 4074.24 2096.74C4621.22 1823.75 4581.96 1241.49 5186.41 1261.1C5615.14 1275.01 5742.56 1556.6 6156.92 1686.7C6687.45 1853.28 7025.07 1453.89 7508.47 1750.99C8053.78 2086.13 7728.42 2494.55 8153.41 3000.53C8658.87 3602.3 9625.64 3256.86 9834.21 4041.04C10032.4 4786.13 9338.13 4613.39 9215.75 5371.67C9005.37 6675.26 10775.1 7758.37 10723.2 9095.78C10678.1 10259.7 9050.77 9291.31 8005.91 9438.64C7041.45 9574.63 6527.74 10249.3 5553.1 10217.8C4680.82 10189.7 4039.11 9418.98 3175.54 9265.25C2433.87 9133.22 1723.6 9571.92 1227.91 9031.94C-317.852 7348.1 2340.74 7021.98 2472.12 4578.52C2519.94 3689.19 1432.58 2987.38 2213.19 2419.11Z" fill="#D6B2EC" stroke="black"/>
<ellipse cx="105.341" cy="116.508" rx="105.341" ry="116.508" transform="matrix(0.992134 -0.125181 0.119054 0.992888 6286.82 2922.94)" fill="black"/>
<ellipse cx="105.341" cy="116.508" rx="105.341" ry="116.508" transform="matrix(0.992134 -0.125181 0.119054 0.992888 4837.83 2636.01)" fill="black"/>
<path d="M4493.78 3305.79C4605.39 3056.79 4932.32 3507.03 5455.04 3654.16C6031.41 3816.35 6569.83 3513.5 6597.58 3744.92C6625.33 3976.34 5843.5 4017.11 5413.11 3894.36C4991.09 3774 4419.42 3471.68 4493.78 3305.79Z" fill="#E485B3" stroke="black"/>
<g filter="url(#filter0_f_607_3397)">
<path d="M2391.9 7968.04C1918.3 7727 1621.17 7439 1547.2 6822.04L924.424 7526.91L780.13 8093.12L914.535 8624.17L1248.72 9051.72L1703.76 9307.45L2758.13 9252.71L3482.62 9396.15L4610.97 9958.37L5781.25 10280.4L6459.5 10038.3L8015.79 9450.48L8800.71 9508.02L10170.8 9726.59L10640 9510.81L10784.3 8944.6L10464.3 8045.53L9777.44 7036.18C9777.44 7036.18 9693.57 7516.49 9154.67 7741.05C8615.76 7965.62 8091.05 7718.68 7603.32 7780.22C7254.94 7824.17 6265.33 8913.34 5387.28 8764.4C4728.81 8652.72 4215.6 7840.87 3924.75 7774.64C3415.75 7658.74 2944.11 8249.1 2391.9 7968.04Z" fill="black" fill-opacity="0.15"/>
</g>
<path d="M4497.69 1651.84L4809.08 1299.42C5194.65 1172.48 5742.59 1416.47 5742.59 1416.47C5361.53 1777.69 5203.68 1641.03 4497.69 1651.84Z" fill="white" fill-opacity="0.5"/>
<path d="M2123.82 2499.49C2221.23 2722 2606.6 2986.53 3299.05 2272.92C3299.05 2272.92 2734.05 2083.25 2123.82 2499.49Z" fill="white" fill-opacity="0.5"/>
<path d="M6656.37 1767.22C6779.32 1903.55 7102.03 2139.03 7313.74 1665.25C7313.74 1665.25 6909.48 1499.61 6656.37 1767.22Z" fill="white" fill-opacity="0.5"/>
<path d="M8658.35 3318.96C8686.09 3550.32 8950.6 3986.66 9707.78 3812.84C9707.78 3812.84 9164.57 3411.66 8658.35 3318.96Z" fill="white" fill-opacity="0.5"/>
<path d="M2213.32 2420.34C2820.77 1978.13 3421 2424.05 4074.37 2097.97C4621.35 1824.99 4582.09 1242.73 5186.54 1262.34C5615.27 1276.25 5742.69 1557.83 6157.05 1687.93C6687.58 1854.51 7025.2 1455.12 7508.61 1752.22C8053.91 2087.36 7728.55 2495.79 8153.54 3001.76C8659 3603.54 9625.77 3258.09 9834.34 4042.28C10032.5 4787.36 9338.26 4614.63 9215.88 5372.91C9005.5 6676.49 10775.2 7759.61 10723.4 9097.02C10678.3 10261 9050.9 9292.54 8006.04 9439.87C7041.58 9575.87 6527.88 10250.5 5553.23 10219.1C4680.96 10191 4039.24 9420.22 3175.67 9266.49C2434 9134.46 1723.73 9573.15 1228.04 9033.18C-317.721 7349.33 2340.87 7023.22 2472.25 4579.76C2520.08 3690.42 1432.71 2988.61 2213.32 2420.34Z" stroke="black"/>
<path d="M1704.07 1246.6L1917 282.927L2433.63 403.046L2220.69 1366.72C2220.69 1366.72 2449.25 1419.86 2510.63 1700.76C2596.56 2094.01 1886.26 4861.76 1886.26 4861.76C1886.26 4861.76 1639.88 4852.24 1201.47 4750.31C763.048 4648.37 536.754 4547.98 536.754 4547.98C536.754 4547.98 1048.01 1787.29 1290.83 1470.47C1498.96 1198.91 1704.07 1246.6 1704.07 1246.6Z" fill="#36BD54" stroke="black" stroke-linecap="round" stroke-linejoin="round"/>
<path d="M1847.21 576.205L1912.25 281.839L2438.35 404.161L2373.31 698.528C2373.31 698.528 2200.21 727.058 2095.8 702.781C1991.39 678.505 1847.21 576.205 1847.21 576.205Z" fill="#416F4B" stroke="black" stroke-linecap="round" stroke-linejoin="round"/>
<path d="M2379.91 2754.72L976.975 2428.52L778.232 3327.98L2181.16 3654.17L2379.91 2754.72Z" fill="#EDEDED" stroke="black" stroke-linecap="round" stroke-linejoin="round"/>
<path d="M1912.16 282.204C1943.45 140.633 2116.91 133.349 2233.67 168.219C2337.15 199.122 2465.99 279.059 2438.26 404.526C2408.52 539.163 2285.86 557.828 2154.34 527.246C2022.06 496.488 1877.46 439.28 1912.16 282.204Z" fill="#416E4B" stroke="black" stroke-linecap="round" stroke-linejoin="round"/>
<path d="M9748.2 2413.91L9651.49 1440.92L10291.4 1373.99L10388.1 2346.98C10388.1 2346.98 10675.4 2356.9 10825.9 2611.66C11163.5 3183.24 10875.1 3831.71 10944.2 4689.45C10976.1 5010.58 11252 5194.75 11118.1 5551.96C11016.4 5823.53 10703.9 5731.7 10404.7 5765.63C10101.7 5799.99 9811.56 5956.76 9663.74 5704.06C9470.19 5373.17 9691.61 5098.62 9664.34 4823.31C9578 3951.64 9142.58 3255.54 9379.01 2720.93C9522.97 2395.41 9748.2 2413.91 9748.2 2413.91Z" fill="#533913" stroke="black" stroke-linecap="round" stroke-linejoin="round"/>
<path d="M9688.61 1740.42L9658.77 1440.15L10284.9 1374.67L10314.7 1674.94C10314.7 1674.94 10132.6 1761.42 10008.3 1774.41C9884.04 1787.41 9688.61 1740.42 9688.61 1740.42Z" fill="#A46D1C" stroke="black" stroke-linecap="round" stroke-linejoin="round"/>
<path d="M10941.8 3438.19L9421.29 3597.21L9646.64 4500.69L10898.9 4369.73L10941.8 3438.19Z" fill="#43A222" stroke="black" stroke-linecap="round" stroke-linejoin="round"/>
<path d="M9658.8 1440.53C9644.45 1296.11 9834.39 1229.57 9976.02 1222.33C10101.5 1215.91 10272.2 1247.06 10284.9 1375.05C10298.6 1512.39 10168.9 1572.2 10012.4 1588.57C9854.99 1605.03 9674.73 1600.76 9658.8 1440.53Z" fill="#A46D1C" stroke="black" stroke-linecap="round" stroke-linejoin="round"/>
<path d="M4739.01 2767.94L4315.58 3119.94M5126.2 2855.32L4702.76 3207.32M5513.39 2942.7L5089.95 3294.7M5955.89 3042.56L5532.46 3394.57M6398.39 3142.42L5974.96 3494.43M6840.89 3242.28L6417.46 3594.29" stroke="#EC3A3A" stroke-opacity="0.5" stroke-width="10" stroke-linecap="round"/>
<path d="M7821.69 2133.94C6383.17 2355.28 5094.5 1857.26 4629.97 1580.58L4360.52 1903.35C5115.74 2456.71 7087.45 2625.81 7956.55 2641.19L7821.69 2133.94Z" fill="#1F46A9" stroke="black" stroke-linecap="round"/>
<path d="M7316.61 5454.08L7102.69 4984.56C7102.69 4984.56 7274.84 4463.04 7316.61 3978.45C7358.38 3493.86 7316.61 2502.82 7316.61 2502.82H7584.01C7584.01 2502.82 7627.05 3283.06 7637.49 3767.65C7647.93 4252.24 7637.49 4984.56 7637.49 4984.56L7316.61 5454.08Z" fill="#0C2360" stroke="black" stroke-linecap="round" stroke-linejoin="round"/>
<path d="M7716.33 2210.26C7581.39 2118.17 7402 2118.06 7267.08 2164.17C7087.25 2225.65 7267.12 2625.33 7446.61 2625.33C7581.75 2625.33 7851.55 2302.53 7716.33 2210.26Z" fill="#0C2360" stroke="black" stroke-linecap="round"/>
<path d="M1888.15 4854.82H1663.38C2199.42 2581.56 2517.41 1672.78 2067.87 1442.22C2067.87 1349.99 2292.64 519.947 2292.64 519.947L2427.5 473.834L2247.69 1349.99C2607.32 1580.56 2607.32 1903.54 1888.15 4854.82Z" fill="black" fill-opacity="0.15"/>
<path d="M4225.65 12.6992L4225.65 289.38" stroke="black" stroke-width="5" stroke-linecap="round"/>
<path d="M4675.19 289.385L4495.37 427.725" stroke="black" stroke-width="5" stroke-linecap="round"/>
<path d="M3776.12 381.606L3985.61 427.72" stroke="black" stroke-width="5" stroke-linecap="round"/>
<path d="M4093.96 750.517L3914.14 934.97" stroke="black" stroke-width="5" stroke-linecap="round"/>
<path d="M4585.29 934.971L4405.47 750.517" stroke="black" stroke-width="5" stroke-linecap="round"/>
<path d="M9261.85 1290.86L9000 1529.22" stroke="black" stroke-width="5" stroke-linecap="round"/>
<path d="M9387.27 1976.89L9101.43 1916.99" stroke="black" stroke-width="5" stroke-linecap="round"/>
<path d="M8525.45 1161.01L8662.28 1409.36" stroke="black" stroke-width="5" stroke-linecap="round"/>
<path d="M8450.18 1795.31L8120.7 1775.15" stroke="black" stroke-width="5" stroke-linecap="round"/>
<path d="M8698.9 2443.54L8718.55 2105.56" stroke="black" stroke-width="5" stroke-linecap="round"/>
<defs>
<filter id="filter0_f_607_3397" x="776.13" y="6818.04" width="10012.2" height="3466.39" filterUnits="userSpaceOnUse" color-interpolation-filters="sRGB">
<feFlood flood-opacity="0" result="BackgroundImageFix"/>
<feBlend mode="normal" in="SourceGraphic" in2="BackgroundImageFix" result="shape"/>
<feGaussianBlur stdDeviation="2" result="effect1_foregroundBlur_607_3397"/>
</filter>
</defs>
</svg>
